<mxfile host="65bd71144e">
    <diagram id="C5RBs43oDa-KdzZeNtuy" name="__init__(BasePageクラス)">
        <mxGraphModel dx="732" dy="563" grid="1" gridSize="10" guides="1" tooltips="1" connect="1" arrows="1" fold="1" page="1" pageScale="1" pageWidth="827" pageHeight="1169" math="0" shadow="0">
            <root>
                <mxCell id="WIyWlLk6GJQsqaUBKTNV-0"/>
                <mxCell id="WIyWlLk6GJQsqaUBKTNV-1" parent="WIyWlLk6GJQsqaUBKTNV-0"/>
                <mxCell id="XCzI87FWzP-295grm8oO-0" value="" style="edgeStyle=orthogonalEdgeStyle;rounded=0;orthogonalLoop=1;jettySize=auto;html=1;" parent="WIyWlLk6GJQsqaUBKTNV-1" source="XCzI87FWzP-295grm8oO-1" edge="1">
                    <mxGeometry relative="1" as="geometry">
                        <mxPoint x="400" y="455" as="targetPoint"/>
                    </mxGeometry>
                </mxCell>
                <mxCell id="XCzI87FWzP-295grm8oO-1" value="開始" style="strokeWidth=2;html=1;shape=mxgraph.flowchart.start_1;whiteSpace=wrap;" parent="WIyWlLk6GJQsqaUBKTNV-1" vertex="1">
                    <mxGeometry x="365" y="345" width="70" height="40" as="geometry"/>
                </mxCell>
                <mxCell id="XCzI87FWzP-295grm8oO-6" style="rounded=0;orthogonalLoop=1;jettySize=auto;html=1;entryX=1;entryY=0.25;entryDx=0;entryDy=0;exitX=-0.006;exitY=0.387;exitDx=0;exitDy=0;exitPerimeter=0;endArrow=none;endFill=0;" parent="WIyWlLk6GJQsqaUBKTNV-1" source="XCzI87FWzP-295grm8oO-7" edge="1">
                    <mxGeometry relative="1" as="geometry">
                        <mxPoint x="500" y="495" as="targetPoint"/>
                    </mxGeometry>
                </mxCell>
                <mxCell id="XCzI87FWzP-295grm8oO-7" value="&lt;span style=&quot;font-size: 14px;&quot;&gt;継承しているcustomtkinter.CTkFrameの__init__メソッド呼び出し&lt;/span&gt;" style="text;html=1;align=left;verticalAlign=top;whiteSpace=wrap;rounded=0;fillColor=#f5f5f5;fontColor=#333333;strokeColor=#666666;" parent="WIyWlLk6GJQsqaUBKTNV-1" vertex="1">
                    <mxGeometry x="550" y="470" width="220" height="65" as="geometry"/>
                </mxCell>
                <mxCell id="XCzI87FWzP-295grm8oO-11" value="&lt;b style=&quot;&quot;&gt;&lt;font style=&quot;&quot;&gt;&lt;font style=&quot;font-size: 18px;&quot;&gt;初期化メソッド&lt;/font&gt;&lt;/font&gt;&lt;/b&gt;&lt;div&gt;&lt;font style=&quot;font-size: 14px;&quot;&gt;クラス：BasePageクラス&lt;/font&gt;&lt;/div&gt;&lt;div&gt;&lt;div style=&quot;font-size: 14px;&quot;&gt;&lt;font style=&quot;font-size: 14px;&quot;&gt;継承： ABC, customtkinter.CTkFrame&lt;/font&gt;&lt;/div&gt;&lt;/div&gt;&lt;div style=&quot;font-size: 14px;&quot;&gt;&lt;font style=&quot;font-size: 14px;&quot;&gt;&lt;br&gt;&lt;/font&gt;&lt;/div&gt;&lt;div style=&quot;font-size: 14px;&quot;&gt;&lt;font style=&quot;font-size: 14px;&quot;&gt;※ABCクラスを継承し、抽象クラスとしています。&lt;br&gt;&lt;/font&gt;&lt;/div&gt;&lt;div style=&quot;font-size: 14px;&quot;&gt;&lt;font style=&quot;font-size: 14px;&quot;&gt;&lt;br&gt;&lt;/font&gt;&lt;/div&gt;&lt;div style=&quot;font-size: 14px;&quot;&gt;&lt;font style=&quot;font-size: 14px;&quot;&gt;クラスの役割&lt;/font&gt;&lt;/div&gt;&lt;div style=&quot;font-size: 14px;&quot;&gt;Pageクラスの抽象メソッドです。&lt;/div&gt;&lt;div style=&quot;font-size: 14px;&quot;&gt;ページクラス群を作成するときはこのクラスを継承して作成してください。&lt;/div&gt;" style="text;html=1;align=left;verticalAlign=top;whiteSpace=wrap;rounded=0;fillColor=#f5f5f5;fontColor=#333333;strokeColor=#666666;" parent="WIyWlLk6GJQsqaUBKTNV-1" vertex="1">
                    <mxGeometry x="20" y="30" width="340" height="200" as="geometry"/>
                </mxCell>
                <mxCell id="XCzI87FWzP-295grm8oO-12" style="rounded=0;orthogonalLoop=1;jettySize=auto;html=1;entryX=1;entryY=0.5;entryDx=0;entryDy=0;exitX=-0.006;exitY=0.387;exitDx=0;exitDy=0;exitPerimeter=0;endArrow=none;endFill=0;entryPerimeter=0;" parent="WIyWlLk6GJQsqaUBKTNV-1" source="XCzI87FWzP-295grm8oO-13" target="XCzI87FWzP-295grm8oO-1" edge="1">
                    <mxGeometry relative="1" as="geometry">
                        <mxPoint x="435" y="325" as="targetPoint"/>
                    </mxGeometry>
                </mxCell>
                <mxCell id="XCzI87FWzP-295grm8oO-13" value="&amp;nbsp;引数１：self&lt;div&gt;&amp;nbsp;引数２：&lt;span style=&quot;background-color: initial;&quot;&gt;master, CTkクラス型&lt;/span&gt;&lt;/div&gt;&lt;div&gt;&lt;div&gt;&amp;nbsp;引数３：**kwargs: 辞書型&lt;br&gt;&lt;/div&gt;&lt;/div&gt;" style="text;html=1;align=left;verticalAlign=top;whiteSpace=wrap;rounded=0;fillColor=#f5f5f5;fontColor=#333333;strokeColor=#666666;" parent="WIyWlLk6GJQsqaUBKTNV-1" vertex="1">
                    <mxGeometry x="495" y="330" width="220" height="65" as="geometry"/>
                </mxCell>
                <mxCell id="3" value="" style="edgeStyle=none;html=1;exitX=0.5;exitY=1;exitDx=0;exitDy=0;" edge="1" parent="WIyWlLk6GJQsqaUBKTNV-1" source="XCzI87FWzP-295grm8oO-14" target="2">
                    <mxGeometry relative="1" as="geometry"/>
                </mxCell>
                <mxCell id="XCzI87FWzP-295grm8oO-14" value="super().__init__(master, **kwargs)" style="shape=process;whiteSpace=wrap;html=1;backgroundOutline=1;" parent="WIyWlLk6GJQsqaUBKTNV-1" vertex="1">
                    <mxGeometry x="306" y="455" width="190" height="60" as="geometry"/>
                </mxCell>
                <mxCell id="0" value="" style="edgeStyle=orthogonalEdgeStyle;rounded=0;orthogonalLoop=1;jettySize=auto;html=1;" edge="1" parent="WIyWlLk6GJQsqaUBKTNV-1">
                    <mxGeometry relative="1" as="geometry">
                        <mxPoint x="402" y="643" as="sourcePoint"/>
                        <mxPoint x="402" y="723" as="targetPoint"/>
                        <Array as="points">
                            <mxPoint x="402" y="683"/>
                            <mxPoint x="402" y="683"/>
                        </Array>
                    </mxGeometry>
                </mxCell>
                <mxCell id="1" value="終了" style="strokeWidth=2;html=1;shape=mxgraph.flowchart.start_1;whiteSpace=wrap;" vertex="1" parent="WIyWlLk6GJQsqaUBKTNV-1">
                    <mxGeometry x="366" y="723" width="70" height="40" as="geometry"/>
                </mxCell>
                <mxCell id="2" value="インスタンス変数[style]にCommonStyleクラスのインスタンスを代入" style="rounded=1;whiteSpace=wrap;html=1;" vertex="1" parent="WIyWlLk6GJQsqaUBKTNV-1">
                    <mxGeometry x="301" y="583" width="200" height="60" as="geometry"/>
                </mxCell>
                <mxCell id="4" value="引数２のmasterから&lt;br&gt;取得してください。" style="shape=callout;whiteSpace=wrap;html=1;perimeter=calloutPerimeter;position2=1;" vertex="1" parent="WIyWlLk6GJQsqaUBKTNV-1">
                    <mxGeometry x="170" y="550" width="120" height="80" as="geometry"/>
                </mxCell>
            </root>
        </mxGraphModel>
    </diagram>
</mxfile>